{"title":"12.Years.A.Slave.2013.BRRip.720p.x264.AAC-PRiSTiNE [P2PDL]","uid":9640411,"size":904209622,"categoryP":"video","categoryS":"hd___movies","magnet":"?xt=urn:btih:a22160920dbbbd49eba5d9391ee1dc51eb6086fe&amp;dn=12.Years.A.Slave.2013.BRRip.720p.x264.AAC-PRiSTiNE+%5BP2PDL%5D&amp;tr=udp%3A%2F%2Ftracker.openbittorrent.com%3A80&amp;tr=udp%3A%2F%2Fopen.demonii.com%3A1337&amp;tr=udp%3A%2F%2Ftracker.coppersurfer.tk%3A6969&amp;tr=udp%3A%2F%2Fexodus.desync.com%3A6969","seeders":1,"leechers":0,"uploader":"ValidusVyto","files":-1,"time":1392916555,"description":"12.Years.A.Slave.2013.BRRip.720p.x264.AAC-PRiSTiNE\n\n\nGenre: Biography | Drama | History  &lt;a href=&quot;\nhttp://www.imdb.com/title/tt2024544/&quot; rel=&quot;nofollow&quot; target=&quot;_NEW&quot;&gt;\nhttp://www.imdb.com/title/tt2024544/&lt;/a&gt;\n\n\nFormat                                   : MPEG-4\nFile size                                : 849 MiB\nDuration                                 : 2h 14mn\nOverall bit rate mode                    : Variable\nOverall bit rate                         : 885 Kbps\n\nVideo\nFormat                                   : AVC\nFormat profile                           : &lt;a class=&quot;__cf_email__&quot; href=&quot;/cdn-cgi/l/email-protection&quot; data-cfemail=&quot;9dd5f4faf5ddd1a9b3ac&quot;&gt;[email&amp;#160;protected]&lt;/a&gt;&lt;script cf-hash='f9e31' type=&quot;text/javascript&quot;&gt;\n/* &lt;![CDATA[ */!function(){try{var t=&quot;currentScript&quot;in document?document.currentScript:function(){for(var t=document.getElementsByTagName(&quot;script&quot;),e=t.length;e--;)if(t[e].getAttribute(&quot;cf-hash&quot;))return t[e]}();if(t&amp;&amp;t.previousSibling){var e,r,n,i,c=t.previousSibling,a=c.getAttribute(&quot;data-cfemail&quot;);if(a){for(e=&quot;&quot;,r=parseInt(a.substr(0,2),16),n=2;a.length-n;n+=2)i=parseInt(a.substr(n,2),16)^r,e+=String.fromCharCode(i);e=document.createTextNode(e),c.parentNode.replaceChild(e,c)}}}catch(u){}}();/* ]]&gt; */&lt;/script&gt;\nBit rate                                 : 800 Kbps\nWidth                                    : 1 280 pixels\nHeight                                   : 528 pixels\nDisplay aspect ratio                     : 2.40:1\nFrame rate mode                          : Variable\nFrame rate                               : 23.976 fps\nBit depth                                : 8 bits\nStream size                              : 767 MiB (90%)\nWriting library                          : x264 core 142 r2389\n\nAudio\nFormat                                   : AAC\nBit rate mode                            : Variable\nBit rate                                 : 80.0 Kbps\nChannel(s)                               : 2 channels\nChannel positions                        : Front: L R\nSampling rate                            : 48.0 KHz\nStream size                              : 76.8 MiB (9%)\nLanguage                                 : English\n\nSubtitle:                                : Yes(English)\n &lt;a href=&quot;\nhttp://imgbox.com/mmwd0jSD&quot; rel=&quot;nofollow&quot; target=&quot;_NEW&quot;&gt;\nhttp://imgbox.com/mmwd0jSD&lt;/a&gt; &lt;a href=&quot;\nhttp://imgbox.com/h1fAbDI6&quot; rel=&quot;nofollow&quot; target=&quot;_NEW&quot;&gt;\nhttp://imgbox.com/h1fAbDI6&lt;/a&gt; &lt;a href=&quot;\nhttp://imgbox.com/Ml7cBPfi&quot; rel=&quot;nofollow&quot; target=&quot;_NEW&quot;&gt;\nhttp://imgbox.com/Ml7cBPfi&lt;/a&gt; &lt;a href=&quot;\nhttp://imgbox.com/e1Fz12eD&quot; rel=&quot;nofollow&quot; target=&quot;_NEW&quot;&gt;\nhttp://imgbox.com/e1Fz12eD&lt;/a&gt; &lt;a href=&quot;\nhttp://imgbox.com/b3Kbrlsx&quot; rel=&quot;nofollow&quot; target=&quot;_NEW&quot;&gt;\nhttp://imgbox.com/b3Kbrlsx&lt;/a&gt; &lt;a href=&quot;\nhttp://imgbox.com/KY6B1lmj&quot; rel=&quot;nofollow&quot; target=&quot;_NEW&quot;&gt;\nhttp://imgbox.com/KY6B1lmj&lt;/a&gt; &lt;a href=&quot;\nhttp://imgbox.com/IMQk1Jjh&quot; rel=&quot;nofollow&quot; target=&quot;_NEW&quot;&gt;\nhttp://imgbox.com/IMQk1Jjh&lt;/a&gt; &lt;a href=&quot;\nhttp://imgbox.com/NNNOS6GT&quot; rel=&quot;nofollow&quot; target=&quot;_NEW&quot;&gt;\nhttp://imgbox.com/NNNOS6GT&lt;/a&gt; &lt;a href=&quot;\nhttp://imgbox.com/WjgGtBye&quot; rel=&quot;nofollow&quot; target=&quot;_NEW&quot;&gt;\nhttp://imgbox.com/WjgGtBye&lt;/a&gt; &lt;a href=&quot;\nhttp://imgbox.com/c7GV58Fh&quot; rel=&quot;nofollow&quot; target=&quot;_NEW&quot;&gt;\nhttp://imgbox.com/c7GV58Fh&lt;/a&gt;\n\n----------------------------------------------------------------------------------------------------\n\n\nRecommend to you to use latest version of VLC player. Install K-Lite Codec Pack or shark007 codecs\nin case of any kind of problem in playback (For non-VLC Media Player users). Alternatively, install\nCore AVC codecs, the fastest decoder that there is coupled with Community Center Codec Pack and play\non Windows Media Player Classic. Check sample to be sure.\nEnjoy!\n\nEncoder Notes:Looking For Early Access To Anything You Can Provide DVDScr, R5, DVDR, BluRay, Direct\nAudio, Music Releases and Seedboxes. We require dedicated servers, so as to do more \nand fast releases of movies.","torrent":{"xt":"urn:btih:a22160920dbbbd49eba5d9391ee1dc51eb6086fe","amp;dn":"12.Years.A.Slave.2013.BRRip.720p.x264.AAC-PRiSTiNE+%5BP2PDL%5D","amp;tr":["udp%3A%2F%2Ftracker.openbittorrent.com%3A80","udp%3A%2F%2Fopen.demonii.com%3A1337","udp%3A%2F%2Ftracker.coppersurfer.tk%3A6969","udp%3A%2F%2Fexodus.desync.com%3A6969"],"infoHash":"a22160920dbbbd49eba5d9391ee1dc51eb6086fe","infoHashBuffer":{"type":"Buffer","data":[162,33,96,146,13,187,189,73,235,165,217,57,30,225,220,81,235,96,134,254]},"announce":[],"urlList":[]}}